<svg xmlns="http://www.w3.org/2000/svg" viewBox="0 0 97 20"><svg viewBox="0 0 97 20" xmlns="http://www.w3.org/2000/svg"><path d="M27.97 3.123A3.578 3.578 0 0025.445.597C23.216 0 14.283 0 14.283 0S5.348 0 3.12.597A3.582 3.582 0 00.595 3.123C0 5.35 0 10 0 10s0 4.65.597 6.877a3.578 3.578 0 002.526 2.526C5.35 20 14.285 20 14.285 20s8.935 0 11.162-.597a3.577 3.577 0 002.526-2.526C28.57 14.65 28.57 10 28.57 10s-.002-4.65-.6-6.877z" fill="#03C4B8"/><path d="M11.428 14.285L18.848 10l-7.42-4.285v8.57zM40.057 6.345v.692c0 3.455-1.532 5.475-4.883 5.475h-.51v6.046h-2.738V1.423h3.488c3.194 0 4.643 1.35 4.643 4.922zm-2.88.247c0-2.493-.448-3.085-2-3.085h-.51v6.966h.47c1.47 0 2.043-1.063 2.043-3.37l-.002-.51zM46.534 5.835l-.144 3.247c-1.164-.244-2.126-.06-2.554.692v8.784H41.12V6.039h2.166l.244 2.714h.104c.284-1.98 1.204-2.982 2.39-2.982.17.005.343.026.51.064zM49.657 13.246v.632c0 2.206.122 2.963 1.063 2.963.898 0 1.103-.69 1.124-2.123l2.43.143c.183 2.695-1.226 3.902-3.615 3.902-2.9 0-3.759-1.9-3.759-5.35v-2.19c0-3.636.96-5.414 3.84-5.414 2.9 0 3.637 1.512 3.637 5.29v2.147h-4.72zm0-2.576v.899h2.062v-.894c0-2.302-.164-2.963-1.037-2.963-.872 0-1.025.675-1.025 2.963v-.005zM68.41 9.099v9.457h-2.817V9.308c0-1.02-.266-1.53-.88-1.53-.491 0-.94.284-1.246.815.016.17.023.341.02.51v9.458h-2.819V9.308c0-1.02-.266-1.53-.88-1.53-.491 0-.921.284-1.225.797v9.988h-2.817V6.039h2.227l.25 1.595h.04c.632-1.204 1.655-1.858 2.859-1.858 1.185 0 1.858.593 2.166 1.656.654-1.082 1.635-1.656 2.756-1.656 1.712 0 2.366 1.225 2.366 3.323zM69.82 2.834c0-1.348.49-1.736 1.53-1.736 1.063 0 1.531.45 1.531 1.736 0 1.39-.47 1.738-1.53 1.738-1.04-.003-1.532-.35-1.532-1.738zm.164 3.205h2.695v12.524h-2.695V6.039zM81.891 6.04v12.523h-2.206l-.245-1.531h-.06c-.633 1.225-1.553 1.736-2.696 1.736-1.674 0-2.432-1.063-2.432-3.37V6.042h2.818v9.193c0 1.103.23 1.552.797 1.552.517-.02.98-.329 1.202-.797V6.042h2.822V6.04zM96.19 9.099v9.457h-2.817V9.308c0-1.02-.266-1.53-.88-1.53-.492 0-.94.284-1.246.815.016.167.023.337.02.506v9.457H88.45V9.308c0-1.02-.266-1.53-.88-1.53-.49 0-.921.284-1.225.796v9.989h-2.817V6.039h2.225l.244 1.592h.04c.633-1.204 1.656-1.858 2.86-1.858 1.185 0 1.858.593 2.166 1.656.654-1.082 1.635-1.656 2.756-1.656 1.722.003 2.371 1.228 2.371 3.326z" fill="#fff"/><path d="M40.057 6.345v.692c0 3.455-1.532 5.475-4.883 5.475h-.51v6.046h-2.738V1.423h3.488c3.194 0 4.643 1.35 4.643 4.922zm-2.88.247c0-2.493-.448-3.085-2-3.085h-.51v6.966h.47c1.47 0 2.043-1.063 2.043-3.37l-.002-.51z" fill="#fff"/></svg></svg>